# xmcd
#
# Track frame offsets: 
#        182
#        16537
#        39572
#        55627
#        75285
#        93840
#        128602
#        159177
#        183047
#        201295
#        228707
#
# Disc length: 3498 seconds
#
# Revision: 0
# Processed by: cddbd v1.5.1PL2 Copyright (c) Steve Scherf et al.
# Submitted via: ExactAudioCopy v0.95b2
#
DISCID=6e0da80b
DTITLE=The Bucket - Jams and Preserves
DYEAR=1995
DGENRE=Funk
TTITLE0=Got 2 Make U Mine
TTITLE1=Crevice
TTITLE2=Ba-Daum-Bowm Bowm
TTITLE3=Ballad In C-flat
TTITLE4=Hot Wings
TTITLE5=Bring The Couch
TTITLE6=Get You
TTITLE7=Ain't No Shame In My Game
TTITLE8=Fur On My Rug (Think About You)
TTITLE9=(In The) Lost And Found
TTITLE10=Dance With Me
EXTD=
EXTT0=
EXTT1=
EXTT2=
EXTT3=
EXTT4=
EXTT5=
EXTT6=
EXTT7=
EXTT8=
EXTT9=
EXTT10=
PLAYORDER=
